<?xml version="1.0" standalone="no"?>
<!DOCTYPE svg PUBLIC "-//W3C//DTD SVG 20010904//EN"
 "http://www.w3.org/TR/2001/REC-SVG-20010904/DTD/svg10.dtd">
<svg version="1.0" xmlns="http://www.w3.org/2000/svg"
 width="350.000000pt" height="350.000000pt" viewBox="0 0 350.000000 350.000000"
 preserveAspectRatio="xMidYMid meet">
<metadata>
Created by potrace 1.14, written by Peter Selinger 2001-2017
</metadata>
<g transform="translate(0.000000,350.000000) scale(0.100000,-0.100000)"
fill="#000000" stroke="none">
<path d="M1255 3487 c-133 -78 -185 -121 -244 -202 -57 -77 -96 -171 -112
-265 -10 -60 -2 -187 12 -196 21 -13 5 -44 -56 -104 -110 -109 -226 -311 -255
-445 -5 -22 -16 -71 -24 -110 -28 -123 -16 -468 17 -501 4 -4 7 -16 7 -26 0
-10 10 -39 23 -66 76 -154 148 -237 252 -288 113 -56 109 -45 113 -262 l4
-187 -63 -46 c-46 -32 -81 -49 -124 -58 -160 -34 -223 -54 -319 -102 -129 -66
-296 -212 -377 -331 -60 -87 -109 -203 -109 -255 0 -64 21 -50 40 28 73 285
371 539 722 614 32 7 32 6 -33 -61 -64 -67 -179 -214 -179 -228 0 -4 -11 -23
-25 -43 -41 -62 -115 -270 -115 -326 0 -17 5 -27 15 -27 8 0 15 7 15 15 0 31
60 198 100 276 53 105 97 163 211 279 80 81 207 190 222 190 2 0 8 -55 12
-122 8 -139 18 -172 66 -212 71 -60 109 -70 274 -70 190 0 347 31 402 79 26
22 28 29 33 125 l5 103 82 27 c45 14 90 33 100 40 31 24 72 71 79 92 10 32 -3
33 -30 1 -26 -31 -132 -93 -159 -93 -10 0 -13 6 -10 20 4 14 -1 26 -13 35 -18
13 -18 14 -1 20 11 5 17 18 17 40 0 19 8 39 20 50 13 11 18 25 14 37 -4 15 0
18 26 18 41 0 83 -22 113 -61 21 -27 25 -29 29 -12 13 48 -43 95 -130 109 -46
7 -70 20 -58 31 16 16 372 15 474 -1 167 -27 207 -45 129 -60 -102 -19 -312
-200 -424 -367 -84 -123 -146 -287 -178 -469 -24 -134 -44 -120 178 -120 l193
0 12 48 c108 401 307 679 541 753 139 44 421 34 564 -21 62 -23 69 -36 36 -66
-49 -44 -119 -178 -158 -304 -34 -111 -71 -304 -71 -374 l0 -36 180 0 180 0 0
368 0 369 -22 20 c-106 96 -316 144 -541 123 -62 -6 -124 -13 -139 -16 -22 -4
-34 2 -65 34 -73 76 -169 128 -273 150 -146 30 -192 34 -401 35 l-224 2 -7 60
c-8 73 5 104 52 127 19 10 70 34 113 55 91 44 217 136 309 225 122 118 161
260 162 588 0 185 -2 216 -26 321 -58 259 -165 425 -322 502 -63 31 -172 61
-281 77 -44 7 -90 16 -102 21 -24 9 -36 -1 -48 -41 -44 -145 -197 -280 -370
-326 -62 -17 -175 -19 -175 -3 0 8 13 9 40 5 41 -6 116 13 209 56 206 94 307
493 167 659 -51 61 -4 44 62 -22 19 -18 43 -55 55 -81 22 -51 37 -62 37 -28 0
54 -85 167 -151 201 -32 16 -59 19 -161 18 -75 0 -131 -5 -143 -12z m146 -29
c131 -44 204 -175 178 -318 -20 -114 -57 -212 -97 -261 -39 -49 -130 -119
-154 -119 -8 0 -18 -4 -23 -9 -18 -17 -158 -37 -211 -30 -56 7 -127 47 -145
81 -28 51 -35 120 -23 208 14 96 16 104 52 180 17 34 57 85 107 135 65 65 94
86 155 112 83 35 110 39 161 21z m468 -463 c46 -8 99 -24 117 -36 101 -62 208
-245 267 -458 18 -65 21 -104 22 -271 0 -218 -8 -262 -74 -398 -49 -102 -114
-165 -287 -278 -81 -53 -166 -113 -187 -133 -85 -78 -137 -194 -160 -356 -13
-97 -17 -528 -5 -583 7 -31 6 -34 -30 -50 -29 -13 -71 -16 -202 -17 -157 0
-168 1 -215 25 l-50 25 -7 70 c-3 39 -11 176 -17 305 -18 411 -19 421 -76 488
-34 40 -55 30 -31 -16 8 -16 13 -32 10 -35 -17 -17 -158 86 -204 149 -142 195
-186 497 -113 787 31 124 48 149 39 57 -8 -86 5 -127 57 -181 112 -117 298
-130 397 -28 53 55 83 137 77 210 -10 110 -87 209 -175 225 -47 9 -192 -10
-232 -31 -17 -9 -50 -40 -73 -70 -23 -30 -43 -50 -45 -45 -4 11 67 145 110
208 37 53 147 172 160 172 5 0 28 -13 51 -29 63 -42 164 -65 262 -57 120 10
219 54 313 139 39 37 122 138 122 150 0 3 7 21 15 41 18 42 31 44 164 21z
m-899 -715 c0 -23 -4 -30 -20 -30 -16 0 -20 7 -20 30 0 23 4 30 20 30 16 0 20
-7 20 -30z m810 -1519 c0 -11 5 -21 12 -23 15 -5 1 -28 -17 -28 -16 0 -31 43
-20 59 10 18 25 13 25 -8z"/>
<path d="M1085 3211 c-86 -39 -100 -90 -39 -147 32 -31 41 -34 94 -34 32 0 62
5 65 10 4 6 23 7 44 4 46 -7 71 13 71 57 0 24 -6 32 -28 40 -16 5 -39 23 -50
39 -13 17 -38 33 -59 39 -49 14 -51 14 -98 -8z m33 -53 c2 -12 -5 -19 -23 -24
-34 -8 -53 9 -35 31 17 20 54 16 58 -7z m182 -58 c0 -15 -7 -20 -25 -20 -24 0
-34 18 -18 33 15 15 43 7 43 -13z"/>
<path d="M1550 2507 c-141 -26 -239 -136 -240 -270 0 -115 74 -196 215 -233
192 -51 345 63 345 257 0 178 -132 280 -320 246z m88 -203 c13 -24 3 -56 -17
-52 -17 3 -26 31 -17 54 7 19 23 18 34 -2z"/>
<path d="M1330 1659 c-47 -5 -114 -12 -149 -16 l-65 -8 -3 -67 c-5 -92 -5 -92
216 -85 97 3 186 9 199 12 26 9 29 45 8 115 -12 41 -17 46 -52 52 -45 8 -41 8
-154 -3z"/>
<path d="M1711 3194 c0 -11 3 -14 6 -6 3 7 2 16 -1 19 -3 4 -6 -2 -5 -13z"/>
<path d="M1896 873 c-10 -25 23 -48 41 -30 8 7 11 21 7 30 -8 22 -40 22 -48 0z"/>
</g>
</svg>
